<svg width="22" height="22" viewBox="0 0 22 22" fill="none" xmlns="http://www.w3.org/2000/svg">
<g clip-path="url(#clip0_0_66)">
<path fill-rule="evenodd" clip-rule="evenodd" d="M21.7709 21.1292L20.4875 16.0875C21.3125 14.575 21.7709 12.8333 21.7709 11C21.7709 5.04166 16.9584 0.229164 11 0.229164C5.04169 0.229164 0.229187 5.04166 0.229187 11C0.229187 16.9583 5.04169 21.7708 11 21.7708C12.8334 21.7708 14.575 21.3125 16.0875 20.4875L21.1292 21.7708C21.4959 21.8625 21.8625 21.4958 21.7709 21.1292ZM20.3959 11C20.3959 12.8333 19.9375 14.2083 19.2042 15.5833C19.1125 15.7667 19.0667 15.9958 19.1125 16.225L20.075 20.075L16.2709 19.1125C16.0417 19.0667 15.8125 19.0667 15.6292 19.2042C14.8042 19.6625 13.2459 20.3958 11.0459 20.3958C5.82085 20.3958 1.60419 16.1792 1.60419 11C1.60419 5.82083 5.82085 1.60416 11 1.60416C16.1792 1.60416 20.3959 5.82083 20.3959 11Z" fill="#262626"/>
</g>
<defs>
<clipPath id="clip0_0_66">
<rect width="22" height="22" fill="white"/>
</clipPath>
</defs>
</svg>
