<svg width="22" height="20" viewBox="0 0 22 20" fill="none" xmlns="http://www.w3.org/2000/svg">
<path d="M15.8583 2.2625C18.4708 2.2625 20.625 4.64583 20.625 7.53333C20.625 10.65 17.9208 12.575 15.3542 14.8667C12.7875 17.1583 11.4583 18.3958 11 18.6708C10.4958 18.35 8.84583 16.8375 6.64583 14.8667C4.03333 12.575 1.375 10.65 1.375 7.53333C1.375 4.64583 3.52917 2.2625 6.14167 2.2625C8.06667 2.2625 9.12083 3.17916 9.85417 4.23333C10.725 5.425 10.8625 6.02083 11 6.02083C11.1375 6.02083 11.275 5.425 12.1458 4.23333C12.8792 3.17916 13.9333 2.2625 15.8583 2.2625ZM15.8583 0.887497C13.7958 0.887497 12.2375 1.7125 11 3.45416C9.7625 1.75833 8.20417 0.93333 6.14167 0.93333C2.75 0.887497 0 3.86666 0 7.53333C0 10.8792 2.475 13.0333 4.85833 15.0958C5.13333 15.325 5.45417 15.6 5.72917 15.875L6.78333 16.7917C8.8 18.5792 9.80833 19.4958 10.2667 19.7708C10.4958 19.9083 10.7708 20 11 20C11.275 20 11.5042 19.9083 11.7333 19.7708C12.1917 19.4958 13.0167 18.7625 15.3083 16.6542L16.225 15.8292C16.5458 15.5542 16.8208 15.2792 17.1417 15.05C19.5708 13.0333 22 10.925 22 7.53333C22 3.86666 19.25 0.887497 15.8583 0.887497Z" fill="#262626"/>
</svg>
